<?xml version="1.0" encoding="UTF-8"?><svg id="Layer_1" xmlns="http://www.w3.org/2000/svg" viewBox="0 0 667 300"><defs><style>.cls-1{fill:#21093a;}</style></defs><path class="cls-1" d="m185.02,118.92c-9.64,0-17.72,3.13-24.06,9.31l1.06-5.99c.06-.33-.03-.67-.25-.92-.22-.26-.53-.4-.87-.4h-16.55c-.55,0-1.02.39-1.11.93l-13.57,76.64c-.06.33.03.67.25.92.22.26.53.4.87.4h16.55c.55,0,1.02-.39,1.11-.93l7.28-41.08c2.38-13.43,10.49-21.14,22.26-21.14,4.82,0,8.54,1.4,10.76,4.04,2.35,2.8,3.09,7.09,2.15,12.41l-8.03,45.37c-.06.33.03.67.25.92.22.26.53.4.87.4h16.56c.55,0,1.02-.39,1.11-.93l8.33-47.06c1.82-10.27.17-18.82-4.76-24.71-4.5-5.36-11.48-8.2-20.19-8.2Zm431.8,79.02l-34.27-38.33,33.05-36.8c.3-.33.37-.81.19-1.22-.18-.41-.59-.67-1.03-.67h-20.23c-.33,0-.64.14-.85.39l-27.76,31.62v-61.53c0-.62-.51-1.13-1.13-1.13h-16.55c-.63,0-1.13.51-1.13,1.13v107.3c0,.62.51,1.13,1.13,1.13h16.55c.63,0,1.13-.51,1.13-1.13v-32.43l29.45,33.18c.21.24.52.38.85.38h19.77c.45,0,.85-.26,1.03-.67.18-.41.11-.88-.19-1.22ZM126.79,120.91h-16.55c-.55,0-1.02.39-1.11.93l-13.57,76.64c-.06.33.03.67.25.92.22.26.53.4.87.4h16.55c.55,0,1.02-.39,1.11-.93l13.57-76.64c.06-.33-.03-.67-.25-.92-.22-.26-.53-.4-.87-.4Zm-5.14-8.43c3.06,0,5.96-1.22,8.18-3.44,2.28-2.28,3.55-5.22,3.57-8.28.02-3.05-1.19-5.96-3.4-8.17-2.22-2.3-5.17-3.56-8.33-3.56s-6.11,1.27-8.31,3.55c-4.61,4.61-4.62,11.68.01,16.48,2.29,2.21,5.23,3.42,8.28,3.42Zm194.04,6.44c-10.72,0-19.35,3.63-25.69,10.8v-38.33c0-.62-.51-1.13-1.13-1.13h-16.56c-.63,0-1.13.51-1.13,1.13v107.3c0,.62.51,1.13,1.13,1.13h16.56c.63,0,1.13-.51,1.13-1.13v-7.79c6.31,7.24,14.94,10.91,25.69,10.91s20.04-3.92,27.8-12c7.63-7.94,11.5-17.85,11.5-29.45s-3.87-21.5-11.5-29.45c-7.76-8.07-16.85-12-27.8-12Zm13.91,58.28c-4.36,4.36-9.92,6.57-16.52,6.57s-12.17-2.21-16.51-6.55c-4.43-4.57-6.58-10.08-6.58-16.84s2.21-12.32,6.58-16.69c4.31-4.45,9.86-6.71,16.51-6.71s12.2,2.26,16.52,6.72c4.36,4.36,6.57,9.97,6.57,16.68s-2.15,12.27-6.57,16.83Zm116.23-56.28h-16.55c-.63,0-1.13.51-1.13,1.13v7.67c-6.34-7.17-14.97-10.8-25.69-10.8s-20.04,3.92-27.8,12c-7.64,7.95-11.51,17.85-11.51,29.45s3.87,21.5,11.51,29.45c7.76,8.07,16.85,12,27.8,12s19.38-3.67,25.69-10.91v7.79c0,.62.51,1.13,1.13,1.13h16.55c.63,0,1.13-.51,1.13-1.13v-76.64c0-.62-.51-1.13-1.13-1.13Zm-24.25,56.28c-4.36,4.36-9.92,6.57-16.52,6.57s-12.17-2.21-16.51-6.55c-4.43-4.57-6.58-10.08-6.58-16.84s2.21-12.32,6.58-16.69c4.31-4.45,9.86-6.71,16.51-6.71s12.2,2.26,16.52,6.72c4.36,4.36,6.57,9.97,6.57,16.68s-2.15,12.27-6.57,16.83Zm81.55-58.28c-9.74,0-17.34,3.19-22.63,9.5v-6.37c0-.62-.51-1.13-1.13-1.13h-16.55c-.63,0-1.13.51-1.13,1.13v76.64c0,.62.51,1.13,1.13,1.13h16.55c.63,0,1.13-.51,1.13-1.13v-41.08c0-13.5,6.51-20.94,18.34-20.94,10.19,0,16.04,6.07,16.04,16.65v45.37c0,.62.51,1.13,1.13,1.13h16.56c.63,0,1.13-.51,1.13-1.13v-47.06c0-19.87-12-32.71-30.56-32.71ZM150.5,50.08c-39.4,0-62.76,6.55-78.11,21.89-15.35,15.35-21.89,38.7-21.89,78.11s6.55,62.76,21.89,78.11c15.35,15.35,38.7,21.89,78.11,21.89s62.76-6.55,78.11-21.89c15.35-15.34,21.89-38.7,21.89-78.11s-6.55-62.76-21.89-78.11c-15.35-15.34-38.7-21.89-78.11-21.89Zm64.8,164.8c-11.33,11.33-31.31,16.38-64.8,16.38s-53.47-5.05-64.8-16.38c-11.33-11.33-16.38-31.31-16.38-64.8s5.05-53.47,16.38-64.8c11.33-11.33,31.31-16.38,64.8-16.38s53.47,5.05,64.8,16.38c11.33,11.33,16.38,31.31,16.38,64.8s-5.05,53.47-16.38,64.8Z"/></svg>